g mj_01
v -0.0165 -0.0044 -0.0212
v -0.0152 -0.0044 -0.0225
v -0.0152 0.0099 -0.0225
v -0.0165 0.0099 -0.0212
v -0.0152 0.0109 -0.0212
v 0.0152 0.0109 -0.0212
v 0.0152 0.0099 -0.0225
v -0.017 -0.0044 -0.019
v -0.017 0.0099 -0.019
v -0.017 0.0099 0.019
v -0.0165 0.0109 -0.019
v -0.0165 0.0109 0.019
v -0.0152 0.0115 -0.019
v -0.0152 0.0115 0.019
v -0.017 -0.0044 0.019
v 0.0152 0.0115 -0.019
v 0.0165 0.0099 -0.0212
v 0.0165 -0.0044 -0.0212
v 0.0152 -0.0044 -0.0225
v 0.017 -0.0044 -0.019
v 0.017 0.0099 -0.019
v 0.017 0.0099 0.019
v 0.0165 0.0109 -0.019
v 0.0165 0.0109 0.019
v 0.0152 0.0115 0.019
v 0.017 -0.0044 0.019
v 0.0165 0.0099 0.0212
v 0.0165 -0.0044 0.0212
v 0.0152 0.0099 0.0225
v 0.0152 -0.0044 0.0225
v 0.0152 0.0109 0.0212
v -0.0152 0.0099 0.0225
v -0.0152 0.0109 0.0212
v -0.0165 0.0099 0.0212
v -0.0165 -0.0044 0.0212
v -0.0152 -0.0044 0.0225
v -0.017 -0.0044 0.019
v -0.017 0.0099 0.019
v -0.0165 0.0109 0.019
v -0.0152 0.0115 0.019
v -0.0152 -0.0099 0.0225
v -0.0165 -0.0099 0.0212
v -0.017 -0.0099 0.019
v 0.0152 -0.0099 0.0225
v 0.0165 -0.0099 0.0212
v 0.017 -0.0099 0.019
v 0.017 -0.0099 -0.019
v 0.0165 -0.0099 -0.0212
v 0.0152 -0.0099 -0.0225
v -0.0152 -0.0099 -0.0225
v -0.0165 -0.0099 -0.0212
v -0.017 -0.0099 -0.019
v -0.017 -0.0099 0.019
v 0.0152 0.0115 0.019
v -0.0152 0.0115 0.019
v -0.0152 0.0115 -0.019
v 0.0152 0.0115 -0.019
v -0.0152 -0.0099 -0.0225
v -0.0165 -0.0099 -0.0212
v -0.0152 -0.0109 -0.0212
v 0.0152 -0.0109 -0.0212
v 0.0152 -0.0099 -0.0225
v -0.0165 -0.0109 -0.019
v -0.017 -0.0099 -0.019
v -0.017 -0.0099 0.019
v -0.0165 -0.0109 0.019
v -0.0152 -0.0115 -0.019
v -0.0152 -0.0115 0.019
v 0.0152 -0.0115 0.019
v 0.0152 -0.0115 -0.019
v 0.0165 -0.0099 -0.0212
v 0.0165 -0.0109 0.019
v 0.0165 -0.0109 -0.019
v 0.017 -0.0099 0.019
v 0.017 -0.0099 -0.019
v -0.0165 -0.0099 0.0212
v -0.0152 -0.0109 0.0212
v -0.0152 -0.0099 0.0225
v 0.0152 -0.0109 0.0212
v 0.0152 -0.0099 0.0225
v 0.0165 -0.0099 0.0212
vt 0.8414 0.0319
vt 0.8358 0.0319
vt 0.8358 0.0884
vt 0.8414 0.0884
vt 0.8382 0.0923
vt 0.733 0.0923
vt 0.7355 0.0884
vt 0.8471 0.0319
vt 0.8471 0.0884
vt 0.9892 0.0884
vt 0.8458 0.0922
vt 0.9905 0.0922
vt 0.8425 0.0946
vt 0.9938 0.0946
vt 0.9892 0.0319
vt 0.7287 0.0946
vt 0.7298 0.0884
vt 0.7298 0.0319
vt 0.7355 0.0319
vt 0.7241 0.0319
vt 0.7241 0.0884
vt 0.5821 0.0884
vt 0.7255 0.0922
vt 0.5807 0.0922
vt 0.5775 0.0946
vt 0.5821 0.0319
vt 0.5764 0.0884
vt 0.5764 0.0319
vt 0.5707 0.0884
vt 0.5707 0.0319
vt 0.5732 0.0923
vt 0.4704 0.0884
vt 0.4679 0.0923
vt 0.4648 0.0884
vt 0.4648 0.0319
vt 0.4704 0.0319
vt 0.4591 0.0319
vt 0.4591 0.0884
vt 0.4604 0.0922
vt 0.4637 0.0946
vt 0.4704 0.0102
vt 0.4648 0.0102
vt 0.4591 0.0102
vt 0.5707 0.0102
vt 0.5764 0.0102
vt 0.5821 0.0102
vt 0.7241 0.0102
vt 0.7298 0.0102
vt 0.7355 0.0102
vt 0.8358 0.0102
vt 0.8414 0.0102
vt 0.8471 0.0102
vt 0.9892 0.0102
vt 0.1403 0.9813
vt 0.2559 0.9813
vt 0.2559 0.8366
vt 0.1403 0.8366
vt 0.333 0.0072
vt 0.3277 0.0121
vt 0.3334 0.0133
vt 0.4425 0.0133
vt 0.4429 0.0073
vt 0.3286 0.0207
vt 0.3246 0.0202
vt 0.3246 0.1581
vt 0.3286 0.1575
vt 0.3335 0.021
vt 0.3335 0.1572
vt 0.4423 0.1572
vt 0.4423 0.0211
vt 0.4482 0.0121
vt 0.4473 0.1575
vt 0.4473 0.0208
vt 0.4512 0.158
vt 0.4512 0.0202
vt 0.3277 0.1662
vt 0.3334 0.165
vt 0.333 0.171
vt 0.4425 0.1649
vt 0.4429 0.171
vt 0.4482 0.1661
vn -0.8788606 0 -0.47707865
vn -0.40070343 0 -0.9162078
vn -0.34839797 0.40109769 -0.847195
vn -0.8145074 0.3505032 -0.46230423
vn -0.27260816 0.86202586 -0.42731282
vn 0.27260816 0.86202586 -0.42731282
vn 0.34839797 0.40109769 -0.847195
vn -0.9922948 0 -0.12389935
vn -0.9616774 0.24749418 -0.11799722
vn -0.9616774 0.24749418 0.11799722
vn -0.67870206 0.7231022 -0.12840039
vn -0.67870206 0.7231022 0.12840039
vn -0.22099388 0.9667732 -0.12849645
vn -0.22099388 0.9667732 0.12849645
vn -0.9922948 0 0.12389935
vn 0.22099388 0.9667732 -0.12849645
vn 0.8145074 0.3505032 -0.46230423
vn 0.8788606 0 -0.47707865
vn 0.40070343 0 -0.9162078
vn 0.9922948 0 -0.12389935
vn 0.9616774 0.24749418 -0.11799722
vn 0.9616774 0.24749418 0.11799722
vn 0.67870206 0.7231022 -0.12840039
vn 0.67870206 0.7231022 0.12840039
vn 0.22099388 0.9667732 0.12849645
vn 0.9922948 0 0.12389935
vn 0.8145074 0.3505032 0.46230423
vn 0.8788606 0 0.47707865
vn 0.34839797 0.40109769 0.847195
vn 0.40070343 0 0.9162078
vn 0.27260816 0.86202586 0.42731282
vn -0.34839797 0.40109769 0.847195
vn -0.27260816 0.86202586 0.42731282
vn -0.8145074 0.3505032 0.46230423
vn -0.8788606 0 0.47707865
vn -0.40070343 0 0.9162078
vn -0.9922948 0 0.12389935
vn -0.9616774 0.24749418 0.11799722
vn -0.67870206 0.7231022 0.12840039
vn -0.22099388 0.9667732 0.12849645
vn -0.34839797 -0.40109769 0.847195
vn -0.8145074 -0.3505032 0.46230423
vn -0.9616774 -0.24749418 0.11799722
vn 0.34839797 -0.40109769 0.847195
vn 0.8145074 -0.3505032 0.46230423
vn 0.9616774 -0.24749418 0.11799722
vn 0.9616774 -0.24749418 -0.11799722
vn 0.8145074 -0.3505032 -0.46230423
vn 0.34839797 -0.40109769 -0.847195
vn -0.34839797 -0.40109769 -0.847195
vn -0.8145074 -0.3505032 -0.46230423
vn -0.9616774 -0.24749418 -0.11799722
vn -0.9616774 -0.24749418 0.11799722
vn 0.22099388 0.9667732 0.12849645
vn -0.22099388 0.9667732 0.12849645
vn -0.22099388 0.9667732 -0.12849645
vn 0.22099388 0.9667732 -0.12849645
vn -0.34839797 -0.40109769 -0.847195
vn -0.8145074 -0.3505032 -0.46230423
vn -0.27260816 -0.86202586 -0.42731282
vn 0.27260816 -0.86202586 -0.42731282
vn 0.34839797 -0.40109769 -0.847195
vn -0.67870206 -0.7231022 -0.12840039
vn -0.9616774 -0.24749418 -0.11799722
vn -0.9616774 -0.24749418 0.11799722
vn -0.67870206 -0.7231022 0.12840039
vn -0.22099388 -0.9667732 -0.12849645
vn -0.22099388 -0.9667732 0.12849645
vn 0.22099388 -0.9667732 0.12849645
vn 0.22099388 -0.9667732 -0.12849645
vn 0.8145074 -0.3505032 -0.46230423
vn 0.67870206 -0.7231022 0.12840039
vn 0.67870206 -0.7231022 -0.12840039
vn 0.9616774 -0.24749418 0.11799722
vn 0.9616774 -0.24749418 -0.11799722
vn -0.8145074 -0.3505032 0.46230423
vn -0.27260816 -0.86202586 0.42731282
vn -0.34839797 -0.40109769 0.847195
vn 0.27260816 -0.86202586 0.42731282
vn 0.34839797 -0.40109769 0.847195
vn 0.8145074 -0.3505032 0.46230423
g mj_01_0
f 3/3/3 2/2/2 1/1/1
f 4/4/4 3/3/3 1/1/1
f 4/4/4 5/5/5 3/3/3
f 5/5/5 6/6/6 3/3/3
f 6/6/6 7/7/7 3/3/3
f 4/4/4 1/1/1 8/8/8
f 9/9/9 4/4/4 8/8/8
f 10/10/10 9/9/9 8/8/8
f 9/9/9 10/10/10 11/11/11
f 4/4/4 9/9/9 11/11/11
f 4/4/4 11/11/11 5/5/5
f 10/10/10 12/12/12 11/11/11
f 11/11/11 12/12/12 13/13/13
f 11/11/11 13/13/13 5/5/5
f 6/6/6 5/5/5 13/13/13
f 12/12/12 14/14/14 13/13/13
f 15/15/15 10/10/10 8/8/8
f 16/16/16 6/6/6 13/13/13
f 6/6/6 17/17/17 7/7/7
f 7/7/7 17/17/17 18/18/18
f 19/19/19 7/7/7 18/18/18
f 18/18/18 17/17/17 20/20/20
f 17/17/17 21/21/21 20/20/20
f 3/3/3 7/7/7 19/19/19
f 2/2/2 3/3/3 19/19/19
f 21/21/21 22/22/22 20/20/20
f 21/21/21 23/23/23 22/22/22
f 21/21/21 17/17/17 23/23/23
f 23/23/23 16/16/16 24/24/24
f 23/23/23 24/24/24 22/22/22
f 16/16/16 25/25/25 24/24/24
f 22/22/22 26/26/26 20/20/20
f 16/16/16 23/23/23 6/6/6
f 23/23/23 17/17/17 6/6/6
f 22/22/22 27/27/27 26/26/26
f 27/27/27 22/22/22 24/24/24
f 27/27/27 28/28/28 26/26/26
f 27/27/27 29/29/29 28/28/28
f 29/29/29 30/30/30 28/28/28
f 27/27/27 31/31/31 29/29/29
f 24/24/24 25/25/25 31/31/31
f 27/27/27 24/24/24 31/31/31
f 32/32/32 29/29/29 31/31/31
f 30/30/30 29/29/29 32/32/32
f 33/33/33 32/32/32 31/31/31
f 33/33/33 34/34/34 32/32/32
f 32/32/32 34/34/34 35/35/35
f 36/36/36 32/32/32 35/35/35
f 36/36/36 30/30/30 32/32/32
f 35/35/35 34/34/34 37/37/37
f 34/34/34 38/38/38 37/37/37
f 38/38/38 34/34/34 39/39/39
f 39/39/39 34/34/34 33/33/33
f 40/40/40 39/39/39 33/33/33
f 40/40/40 33/33/33 31/31/31
f 25/25/25 40/40/40 31/31/31
f 41/41/41 36/36/36 35/35/35
f 36/36/36 41/41/41 30/30/30
f 42/42/42 41/41/41 35/35/35
f 42/42/42 35/35/35 37/37/37
f 43/43/43 42/42/42 37/37/37
f 41/41/41 44/44/44 30/30/30
f 30/30/30 44/44/44 28/28/28
f 44/44/44 45/45/45 28/28/28
f 28/28/28 45/45/45 26/26/26
f 45/45/45 46/46/46 26/26/26
f 26/26/26 46/46/46 20/20/20
f 46/46/46 47/47/47 20/20/20
f 47/47/47 48/48/48 20/20/20
f 48/48/48 18/18/18 20/20/20
f 48/48/48 49/49/49 18/18/18
f 49/49/49 19/19/19 18/18/18
f 19/19/19 49/49/49 50/50/50
f 2/2/2 19/19/19 50/50/50
f 2/2/2 50/50/50 1/1/1
f 50/50/50 51/51/51 1/1/1
f 1/1/1 51/51/51 8/8/8
f 51/51/51 52/52/52 8/8/8
f 52/52/52 53/53/53 8/8/8
f 53/53/53 15/15/15 8/8/8
f 56/56/56 55/55/55 54/54/54
f 57/57/57 56/56/56 54/54/54
f 60/60/60 59/59/59 58/58/58
f 60/60/60 58/58/58 61/61/61
f 58/58/58 62/62/62 61/61/61
f 63/63/63 59/59/59 60/60/60
f 64/64/64 59/59/59 63/63/63
f 64/64/64 63/63/63 65/65/65
f 63/63/63 66/66/66 65/65/65
f 63/63/63 67/67/67 66/66/66
f 67/67/67 63/63/63 60/60/60
f 67/67/67 60/60/60 61/61/61
f 67/67/67 68/68/68 66/66/66
f 69/69/69 68/68/68 67/67/67
f 70/70/70 69/69/69 67/67/67
f 70/70/70 67/67/67 61/61/61
f 71/71/71 61/61/61 62/62/62
f 72/72/72 69/69/69 70/70/70
f 73/73/73 72/72/72 70/70/70
f 73/73/73 70/70/70 61/61/61
f 71/71/71 73/73/73 61/61/61
f 74/74/74 72/72/72 73/73/73
f 75/75/75 74/74/74 73/73/73
f 71/71/71 75/75/75 73/73/73
f 76/76/76 65/65/65 66/66/66
f 66/66/66 68/68/68 77/77/77
f 76/76/76 66/66/66 77/77/77
f 76/76/76 77/77/77 78/78/78
f 77/77/77 79/79/79 78/78/78
f 79/79/79 77/77/77 68/68/68
f 69/69/69 79/79/79 68/68/68
f 69/69/69 72/72/72 79/79/79
f 79/79/79 80/80/80 78/78/78
f 79/79/79 81/81/81 80/80/80
f 74/74/74 81/81/81 72/72/72
f 72/72/72 81/81/81 79/79/79
